<svg xmlns="http://www.w3.org/2000/svg" xmlns:xlink="http://www.w3.org/1999/xlink" contentStyleType="text/css" data-diagram-type="CLASS" height="102px" preserveAspectRatio="none" style="width:351px;height:102px;background:#FFFFFF;" version="1.1" viewBox="0 0 351 102" width="351px" zoomAndPan="magnify"><?plantuml 1.2026.3beta4?><defs/><g><!--class Client--><g class="entity" data-qualified-name="Client" data-source-line="3" id="ent0002"><rect fill="#F1F1F1" height="80.5938" rx="2.5" ry="2.5" style="stroke:#181818;stroke-width:0.5;" width="133.6934" x="7" y="7"/><ellipse cx="49.5234" cy="23" fill="#ADD1B2" rx="11" ry="11" style="stroke:#181818;stroke-width:1;"/><path d="M52.4921,28.6406 Q51.914,28.9375 51.2734,29.0781 Q50.6328,29.2344 49.9296,29.2344 Q47.4296,29.2344 46.1015,27.5938 Q44.789,25.9375 44.789,22.8125 Q44.789,19.6875 46.1015,18.0313 Q47.4296,16.375 49.9296,16.375 Q50.6328,16.375 51.2734,16.5313 Q51.9296,16.6875 52.4921,16.9844 L52.4921,19.7031 Q51.8671,19.125 51.2734,18.8594 Q50.6796,18.5781 50.0546,18.5781 Q48.7109,18.5781 48.0234,19.6563 Q47.3359,20.7188 47.3359,22.8125 Q47.3359,24.9063 48.0234,25.9844 Q48.7109,27.0469 50.0546,27.0469 Q50.6796,27.0469 51.2734,26.7813 Q51.8671,26.5 52.4921,25.9219 L52.4921,28.6406 Z " fill="#000000"/><text fill="#000000" font-family="sans-serif" font-size="14" lengthAdjust="spacing" textLength="40.5303" x="69.6397" y="27.8467">Client</text><line style="stroke:#181818;stroke-width:0.5;" x1="8" x2="139.6934" y1="39" y2="39"/><g data-visibility-modifier="PUBLIC_FIELD"><ellipse cx="18" cy="52.6484" fill="none" rx="3" ry="3" style="stroke:#038048;stroke-width:1;"/></g><text fill="#000000" font-family="sans-serif" font-size="14" lengthAdjust="spacing" textLength="86.4814" x="27" y="55.9951">Nom : string</text><g data-visibility-modifier="PUBLIC_FIELD"><ellipse cx="18" cy="68.9453" fill="none" rx="3" ry="3" style="stroke:#038048;stroke-width:1;"/></g><text fill="#000000" font-family="sans-serif" font-size="14" lengthAdjust="spacing" textLength="107.6934" x="27" y="72.292">Prenom : string</text><line style="stroke:#181818;stroke-width:0.5;" x1="8" x2="139.6934" y1="79.5938" y2="79.5938"/></g><!--class Compte--><g class="entity" data-qualified-name="Compte" data-source-line="8" id="ent0003"><rect fill="#F1F1F1" height="80.5938" rx="2.5" ry="2.5" style="stroke:#181818;stroke-width:0.5;" width="135.7236" x="200.69" y="7"/><ellipse cx="237.6301" cy="23" fill="#ADD1B2" rx="11" ry="11" style="stroke:#181818;stroke-width:1;"/><path d="M240.5989,28.6406 Q240.0208,28.9375 239.3801,29.0781 Q238.7395,29.2344 238.0364,29.2344 Q235.5364,29.2344 234.2083,27.5938 Q232.8958,25.9375 232.8958,22.8125 Q232.8958,19.6875 234.2083,18.0313 Q235.5364,16.375 238.0364,16.375 Q238.7395,16.375 239.3801,16.5313 Q240.0364,16.6875 240.5989,16.9844 L240.5989,19.7031 Q239.9739,19.125 239.3801,18.8594 Q238.7864,18.5781 238.1614,18.5781 Q236.8176,18.5781 236.1301,19.6563 Q235.4426,20.7188 235.4426,22.8125 Q235.4426,24.9063 236.1301,25.9844 Q236.8176,27.0469 238.1614,27.0469 Q238.7864,27.0469 239.3801,26.7813 Q239.9739,26.5 240.5989,25.9219 L240.5989,28.6406 Z " fill="#000000"/><text fill="#000000" font-family="sans-serif" font-size="14" lengthAdjust="spacing" textLength="54.9678" x="256.5057" y="27.8467">Compte</text><line style="stroke:#181818;stroke-width:0.5;" x1="201.69" x2="335.4136" y1="39" y2="39"/><g data-visibility-modifier="PUBLIC_FIELD"><ellipse cx="211.69" cy="52.6484" fill="none" rx="3" ry="3" style="stroke:#038048;stroke-width:1;"/></g><text fill="#000000" font-family="sans-serif" font-size="14" lengthAdjust="spacing" textLength="109.7236" x="220.69" y="55.9951">Numero : string</text><g data-visibility-modifier="PUBLIC_FIELD"><ellipse cx="211.69" cy="68.9453" fill="none" rx="3" ry="3" style="stroke:#038048;stroke-width:1;"/></g><text fill="#000000" font-family="sans-serif" font-size="14" lengthAdjust="spacing" textLength="100.1738" x="220.69" y="72.292">Solde : double</text><line style="stroke:#181818;stroke-width:0.5;" x1="201.69" x2="335.4136" y1="79.5938" y2="79.5938"/></g><!--link Client to Compte--><g class="link" data-entity-1="ent0002" data-entity-2="ent0003" data-link-type="association" data-source-line="13" id="lnk4"><path codeLine="13" d="M141.17,47.29 C160.33,47.29 181.25,47.29 200.46,47.29" fill="none" id="Client-Compte" style="stroke:#181818;stroke-width:1;"/><text fill="#000000" font-family="sans-serif" font-size="13" lengthAdjust="spacing" textLength="8.271" x="148.5392" y="60.1365">1</text><text fill="#000000" font-family="sans-serif" font-size="13" lengthAdjust="spacing" textLength="6.5" x="186.2689" y="60.231">*</text></g><?plantuml-src NSsn2i903CRn_PxYuqPB1zUkxYBq2RINra3k8hbq4j_T5aifPlp3xulGw725yVHq93OQdBM4CCYzLbo4gJZU0SirLyteKDsuJBzoCoh7-DcXvfVJ3kTCfd-sLqcqjAJpGsYbsxTuZcXRn5FSPhu0?></g></svg>